<svg width="2000" height="289" viewBox="0 0 2000 289" fill="none" xmlns="http://www.w3.org/2000/svg">
<path d="M0 0C26.5145 0 26.5145 0 34.8789 0.480469C35.8746 0.533159 36.8703 0.58585 37.8962 0.640137C41.1188 0.814243 44.3407 0.999459 47.5625 1.1875C48.7076 1.25313 49.8527 1.31876 51.0325 1.38638C141.94 6.64029 232.581 16.926 455.749 60.1282C538.546 79.6179 623.837 89.1815 720.782 89.2607C725.743 89.2494 730.704 89.2561 735.665 89.2676C763.491 89.3222 791.217 88.5413 819 87C819.702 86.9611 820.403 86.9222 821.126 86.8822C829.444 86.4163 837.754 85.8629 846.062 85.25C847.201 85.1673 848.34 85.0846 849.513 84.9994C942.268 78.2109 1034.43 65.042 1126.27 50.6737C1128.7 50.2922 1131.14 49.911 1133.58 49.5299C1148.25 47.2383 1162.91 44.9466 1177.57 42.6162C1261.62 29.2534 1345.96 19.6029 1431 15.3125C1432.79 15.2212 1432.79 15.2212 1434.62 15.1281C1470.22 13.3378 1505.79 12.7915 1541.44 12.8125C1542.97 12.8129 1542.97 12.8129 1544.52 12.8133C1575.95 12.8236 1607.32 13.0599 1638.71 14.8164C1642.23 15.0128 1645.75 15.2019 1649.27 15.3906C1691.26 17.6698 1733.14 21.0081 1775 25C1775.69 25.0662 1776.39 25.1323 1777.1 25.2005C1839.26 31.14 1901.27 38.5473 1963.3 45.6836C1964.01 45.7651 1964.72 45.8466 1965.45 45.9305C1970.12 46.4678 1974.79 47.006 1979.46 47.5447C1980.62 47.6781 1981.78 47.8116 1982.98 47.9491C1984.05 48.0735 1985.13 48.198 1986.24 48.3262C1987.63 48.4862 1987.63 48.4862 1989.04 48.6494C1992.7 49.0828 1996.35 49.5436 2000 50C2000 128.87 2000 207.74 2000 289C1952.7 285.621 1952.7 285.621 1937.49 284.414C1813.53 274.61 1689.31 268.515 1283.67 254.36C1281.6 254.313 1279.52 254.266 1277.44 254.219C1220.63 252.936 1163.82 251.983 1107 251.438C1105.93 251.427 1104.87 251.417 1103.77 251.406C1014.1 250.547 924.4 250.497 794.15 251.956C790.974 252 787.797 252.044 784.621 252.089C694.64 253.346 604.661 255.477 121.5 277.125C120.259 277.208 119.018 277.29 117.739 277.376C95.1923 278.88 72.6474 280.399 50.1172 282.132C48.293 282.272 48.293 282.272 46.4319 282.415C40.6283 282.861 34.8252 283.313 29.0228 283.775C26.9417 283.937 24.8605 284.099 22.7793 284.261C21.8615 284.336 20.9437 284.412 19.9981 284.489C13.2705 285.007 6.80278 285 0 285C0 190.95 0 96.9 0 0Z" fill="#019C12"/>
</svg>